# xmcd
#
# Track frame offsets:
#	150
#	2050
#	17507
#	34237
#	58862
#	83938
#	100200
#	115668
#	131944
#	154146
#	180773
#	195269
#	216203
#	231268
#	247260
#	272020
#
# Disc length: 3749 seconds
# Revision: 0
# Processed by: cddbd v1.5.2PL0 Copyright (c) Steve Scherf et al.
# Submitted via: dBpowerAMP V12.0
#
DISCID=d50ea310
DTITLE=Keith Thompson Band - Catch The Fire
DYEAR=2014
DGENRE=Blues
TTITLE0=Angel Fire - Alpha
TTITLE1=Money
TTITLE2=Paid My Dues
TTITLE3=Burning The Playhouse Down
TTITLE4=Crazy
TTITLE5=Don t Come Running To Me
TTITLE6=She s Too Hot
TTITLE7=Getting Ready For The Burn
TTITLE8=Access Denied
TTITLE9=Little Wing
TTITLE10=Breathe
TTITLE11=Restless
TTITLE12=Send Your Fire
TTITLE13=Wrong Side Of The Bed
TTITLE14=Keeper Of The Flame
TTITLE15=Angel Fire - Omega
EXTD=
EXTT0=
EXTT1=
EXTT2=
EXTT3=
EXTT4=
EXTT5=
EXTT6=
EXTT7=
EXTT8=
EXTT9=
EXTT10=
EXTT11=
EXTT12=
EXTT13=
EXTT14=
EXTT15=
PLAYORDER=
